# xmcd CD database file
#
# Track frame offsets:
#	150
#	17125
#	31735
#	50495
#	68702
#	81576
#	96531
#	117840
#	136165
#	150458
#	169498
#	186052
#	218391
#
# Disc length: 2919 seconds
#
# Revision: 0
# Processed by: cddbd v1.5.1PL2 Copyright (c) Steve Scherf et al.
# Submitted via: CDex 1.50beta9
#
DISCID=ab0b650d
DTITLE=Enya - Amarantine
DYEAR=2005
DGENRE=New Age
TTITLE0=Less than a pearl
TTITLE1=Amarantine
TTITLE2=Is's in the rain
TTITLE3=If I could be where you are
TTITLE4=The river sings
TTITLE5=Long long journey
TTITLE6=Sumiregusa
TTITLE7=Somebody said goodbye
TTITLE8=A moment lost
TTITLE9=Drifting
TTITLE10=Amid the falling snow
TTITLE11=Water shows the hidden heart
TTITLE12=Some DATA stuff
EXTD=YEAR: 2005
EXTT0=
EXTT1=
EXTT2=
EXTT3=
EXTT4=
EXTT5=
EXTT6=
EXTT7=
EXTT8=
EXTT9=
EXTT10=
EXTT11=
EXTT12=
PLAYORDER=
